PathFileType	4	(X/Y/Z)	Patient4_TMGait_0pt7_01_left_40.trc.trc
DataRate	CameraRate	NumFrames	NumMarkers	Units	OrigDataRate	OrigDataStartFrame	OrigNumFrames
84.848484848485	84.848484848485	4	33	mm	84.848484848485	1	       141
Frame#	Time	Sacral			L.Shoulder			Chest			R.Shoulder			Neck			R.ASIS			L.ASIS			R.Thigh.Superior			R.Thigh.Lateral			R.Thigh.Inferior			R.Patella			L.Thigh.Superior			L.Thigh.Lateral			L.Thigh.Inferior			L.Patella			L.Shank.Superior			L.Shank.Lateral			L.Shank.Inferior			R.Shank.Superior			R.Shank.Lateral			R.Shank.Inferior			R.Heel			R.Midfoot.Superior			R.Midfoot.Lateral			R.Toe			L.Heel			L.Midfoot.Lateral			L.Midfoot.Superior			L.Toe			L.Elbow			L.Wrist			R.Elbow			R.Wrist			
		X1	Y1	Z1	X2	Y2	Z2	X3	Y3	Z3	X4	Y4	Z4	X5	Y5	Z5	X6	Y6	Z6	X7	Y7	Z7	X8	Y8	Z8	X9	Y9	Z9	X10	Y10	Z10	X11	Y11	Z11	X12	Y12	Z12	X13	Y13	Z13	X14	Y14	Z14	X15	Y15	Z15	X16	Y16	Z16	X17	Y17	Z17	X18	Y18	Z18	X19	Y19	Z19	X20	Y20	Z20	X21	Y21	Z21	X22	Y22	Z22	X23	Y23	Z23	X24	Y24	Z24	X25	Y25	Z25	X26	Y26	Z26	X27	Y27	Z27	X28	Y28	Z28	X29	Y29	Z29	X30	Y30	Z30	X31	Y31	Z31	X32	Y32	Z32	X33	Y33	Z33	

1	46.290000000000	870.061001577032	1009.827877918533	484.518921554012	1064.098986045022	1418.433427844103	277.284280728768	1167.957529513147	1352.342642970187	440.821830457358	1092.658824614027	1441.306342982450	611.696140916243	1075.873117670750	1490.097185190329	429.699644978468	1096.676447512181	946.921331406819	604.852084261255	1081.152518598419	952.170363429524	330.424432548204	1138.815094230340	744.122720548051	579.833729149637	1051.778494932503	634.768199701067	631.190552403494	1131.449457701075	582.861048282583	553.636731564807	1128.817109898315	492.777712772238	555.584805155412	1162.950385431759	773.119145600769	358.197565232038	1117.457718848454	650.638514892554	274.082916059521	1222.280796916782	585.443872358358	334.584043302043	1232.346311984800	493.560407013371	325.101349428896	1157.998310151747	432.091947494706	315.306249277227	1011.553208196064	410.303558458656	267.021487746288	982.524164441171	281.779361118076	316.468284170724	1097.588429770176	405.466406686302	558.175332620053	1020.531089956074	303.071507242241	613.164003400333	1059.242793854395	208.480017879556	548.206443967250	916.043966393139	48.220391338906	515.417172780171	1090.158641014783	97.227873542734	548.156628954089	1000.663270476115	39.541329913753	587.030868516661	1208.625485927209	38.402338403173	574.611739981542	790.244320102775	258.372800263400	357.375653123779	828.889309058102	195.957008527573	276.847011236251	932.976879866064	174.582030476730	293.649925008901	974.103613916075	43.511739842753	267.601529710665	1031.875538884841	1057.930661571520	195.272299897832	1132.659197605625	815.284775160177	192.983072417114	1064.729953987612	1099.259213399980	750.166283575094	1268.941290448132	945.749636696440	702.847977408310	
2	46.301785714286	868.501757073469	1011.181824538579	485.469679148820	1062.756976653223	1419.281533821961	277.835636122535	1167.304259120685	1352.672687576412	440.695574058827	1093.408980838743	1441.922202742435	612.063639190387	1075.536566088567	1490.812900191590	430.261835330961	1095.219498031052	947.294864207188	604.489509074772	1078.936185288783	953.361857775271	330.636125734953	1134.743572402489	743.674660972149	579.276069682450	1046.873630524868	635.226120960269	631.161689120795	1125.390412849001	582.432446966392	553.251576881098	1121.714184087504	492.649074111223	555.249011087649	1163.134702619390	778.202795069708	358.854517570765	1120.851387774327	654.929075907398	274.464137390677	1227.139459000245	592.353726608615	334.694430105842	1239.855908976550	501.127027190991	325.186377230523	1168.082963907656	437.244131742376	315.432522382622	1022.887655524521	409.352754633037	267.469790476610	999.699111574972	279.783279960912	316.509936952760	1090.135409434945	405.560751262082	558.033961191830	1012.777423133241	303.630511514441	613.456767783380	1051.107761472169	208.722269209092	548.209934019534	907.388430247196	48.826246349514	515.504610483901	1081.615066537390	97.352090168950	548.315891370082	991.960207594606	39.885787534755	587.165997817783	1199.924557887299	38.372026533562	574.696126226867	808.913998274522	246.081792780514	357.665330068991	850.741190872595	187.273277908675	276.397860201845	955.529256373638	171.845245327528	293.027390919268	1003.923385669126	44.232159615775	265.264129758533	1023.681235874181	1059.521086501593	196.225864465286	1108.475710873058	813.183312240082	192.907294420023	1076.638647176154	1099.981329872260	750.264138070580	1287.954269960220	963.510508787179	697.718542130718	
3	46.313571428571	866.998805726695	1012.525051960868	486.420541213214	1061.423861590683	1420.131036727321	278.367142800781	1166.671012365921	1353.001257025360	440.539297389476	1094.190012870080	1442.530133841204	612.405483412214	1075.212156801344	1491.520875181489	430.801395514386	1093.786072939172	947.661994890078	604.174260995287	1076.730295234587	954.555110926439	330.808252822368	1130.688636365158	743.220085410916	578.659439393999	1041.988160555626	635.682993549704	631.112485161160	1119.325107946334	582.001508265643	552.833686445138	1114.606375313947	492.540366547309	554.888210110017	1163.236981176022	783.194419807227	359.509191719656	1124.109853609074	659.146263924076	274.853630819717	1231.778357612130	599.123691930974	334.853446150709	1247.087955324721	508.568944763735	325.314399860995	1177.933315463341	442.301189457221	315.589116268299	1034.088475964137	408.220858829693	267.868699590368	1016.812504294176	277.658195007212	316.532994451768	1082.712610575107	405.668005855708	557.874249786612	1005.081854651059	304.176909213689	613.723546822639	1043.040747038058	208.972616689298	548.211852539323	898.831091885996	49.419706762021	515.598243789562	1073.161035891442	97.474287424467	548.467949393867	983.357405992707	40.221517181253	587.301669557078	1191.318446503420	38.338185253343	574.778519624645	827.649751710535	233.608937334849	357.828498499372	872.673655748214	178.428664317949	275.875879202944	978.085503106219	168.983439065601	292.411146215272	1033.756218850738	44.924403785982	263.025963033263	1015.470880851976	1061.159654153901	197.074224878538	1084.773207937623	811.347088464316	192.845386025430	1088.417273131676	1100.763219995851	750.290743065686	1306.535934506711	981.221704805194	692.586712349456	
4	46.325357142857	865.582970726232	1013.841789843798	487.357657460563	1060.102738612731	1420.971854956196	278.858952826324	1166.074384603542	1353.306876500584	440.315594044388	1095.039544393938	1443.101554619298	612.689425753889	1074.910619635312	1492.197974604241	431.294081294570	1092.389178309726	947.999359131492	603.921524621094	1074.536808751134	955.732659318222	330.890858683010	1126.632732067345	742.735042678349	577.934485592503	1037.096732837993	636.127703127868	631.022299944205	1113.202671266274	581.552724370076	552.355243094112	1107.443107076228	492.455371995832	554.481859739267	1163.147960612193	787.961538238182	360.150020256043	1127.069444509825	663.180289978173	275.235695883390	1235.934790387694	605.561820602574	335.106425301084	1253.735720502840	515.738705582332	325.529139667795	1187.313826041647	447.165293590479	315.802513190850	1045.120100422131	406.702487539382	268.145398745402	1033.936717363920	275.299703273704	316.515703328962	1075.293595849033	405.789115197611	557.678595149106	997.434875647356	304.692671033655	613.941972864879	1035.034895507090	209.228207926194	548.207331724030	890.387205150213	49.978476746324	515.702062757920	1064.805145144690	97.589932569534	548.606512670496	974.872241593360	40.534592118469	587.437457394960	1182.821755202462	38.300418874542	574.856401064387	846.767738168650	220.746203793696	357.717367337521	895.028924951976	169.284633594591	275.210890657912	1000.845978391988	165.936047171493	291.819297939432	1063.825775746899	45.711654084790	261.046027210820	1007.161831163113	1062.921187187654	197.720202925773	1061.881200076444	810.038211919202	192.820847514327	1100.032093413320	1101.677573397262	750.168904742972	1324.306926805480	998.950717939667	687.407863861978	
